<svg width="0" height="0" viewBox="0 0 12 12" xmlns="http://www.w3.org/2000/svg" xmlns:xlink="http://www.w3.org/1999/xlink"><defs><path id="users" d="M0.691406 8.250000Q0.691406 8.367188 0.691406 8.660156Q0.691406 8.953125 0.691406 9.046875Q0.691406 9.117188 0.750000 9.234375Q0.808594 9.351563 0.996094 9.351563Q1.136719 9.351563 1.980469 9.351563Q2.824219 9.351563 3.339844 9.351563Q3.503906 9.351563 3.585938 9.351563Q3.667969 9.351563 3.667969 9.351563L3.738281 9.351563Q3.738281 9.351563 3.761719 9.351563Q3.785156 9.351563 3.832031 9.351563Q3.832031 9.492188 3.832031 9.597656Q3.832031 9.703125 3.832031 9.750000Q3.832031 9.867188 3.914063 9.996094Q3.996094 10.125000 4.230469 10.125000Q4.394531 10.125000 5.449219 10.125000Q6.503906 10.125000 7.113281 10.125000Q7.324219 10.125000 7.429688 10.125000Q7.535156 10.125000 7.535156 10.125000L7.605469 10.125000Q7.605469 10.125000 7.722656 10.125000Q7.839844 10.125000 8.027344 10.125000Q8.660156 10.125000 9.714844 10.125000Q10.769531 10.125000 10.933594 10.125000Q11.144531 10.125000 11.226563 9.996094Q11.308594 9.867188 11.308594 9.750000Q11.308594 9.656250 11.308594 9.292969Q11.308594 8.929688 11.308594 8.765625Q11.308594 8.625000 11.238281 8.460938Q11.167969 8.296875 10.933594 8.203125Q10.792969 8.132813 10.535156 8.039063Q10.277344 7.945313 9.996094 7.828125Q9.691406 7.734375 9.398438 7.628906Q9.105469 7.523438 8.847656 7.453125Q8.824219 7.453125 8.812500 7.417969Q8.800781 7.382813 8.800781 7.218750Q8.800781 7.031250 8.824219 6.902344Q8.847656 6.773438 8.871094 6.679688Q8.941406 6.539063 9 6.351563Q9.058594 6.164063 9.082031 5.953125Q9.175781 5.882813 9.257813 5.707031Q9.339844 5.531250 9.410156 5.203125Q9.457031 4.945313 9.445313 4.816406Q9.433594 4.687500 9.386719 4.593750Q9.386719 4.570313 9.386719 4.558594Q9.386719 4.546875 9.386719 4.546875Q9.363281 4.476563 9.386719 4.207031Q9.410156 3.937500 9.457031 3.656250Q9.480469 3.492188 9.421875 3.152344Q9.363281 2.812500 9.105469 2.507813Q9.035156 2.390625 8.917969 2.285156Q8.800781 2.179688 8.636719 2.109375Q8.472656 2.015625 8.261719 1.945313Q8.050781 1.875000 7.792969 1.875000L7.394531 1.875000Q7.113281 1.875000 6.902344 1.945313Q6.691406 2.015625 6.527344 2.109375Q6.363281 2.179688 6.257813 2.285156Q6.152344 2.390625 6.058594 2.507813Q5.824219 2.812500 5.753906 3.152344Q5.683594 3.492188 5.730469 3.656250Q5.777344 3.937500 5.789063 4.207031Q5.800781 4.476563 5.800781 4.546875Q5.800781 4.546875 5.789063 4.558594Q5.777344 4.570313 5.777344 4.593750Q5.753906 4.687500 5.730469 4.816406Q5.707031 4.945313 5.777344 5.203125Q5.824219 5.531250 5.917969 5.707031Q6.011719 5.882813 6.082031 5.953125Q6.105469 6.164063 6.164063 6.351563Q6.222656 6.539063 6.292969 6.679688Q6.339844 6.796875 6.386719 6.937500Q6.433594 7.078125 6.433594 7.218750Q6.433594 7.382813 6.421875 7.406250Q6.410156 7.429688 6.386719 7.453125Q6.269531 7.476563 6.164063 7.511719Q6.058594 7.546875 5.941406 7.593750Q5.800781 7.546875 5.636719 7.488281Q5.472656 7.429688 5.332031 7.382813Q5.167969 7.312500 5.015625 7.265625Q4.863281 7.218750 4.746094 7.195313Q4.699219 7.171875 4.699219 7.148438Q4.699219 7.125000 4.699219 6.984375Q4.699219 6.843750 4.710938 6.738281Q4.722656 6.632813 4.769531 6.562500Q4.816406 6.445313 4.863281 6.292969Q4.910156 6.140625 4.933594 5.976563Q4.980469 5.906250 5.050781 5.765625Q5.121094 5.625000 5.191406 5.367188Q5.214844 5.156250 5.203125 5.050781Q5.191406 4.945313 5.167969 4.851563Q5.167969 4.851563 5.167969 4.839844Q5.167969 4.828125 5.167969 4.828125Q5.144531 4.781250 5.167969 4.558594Q5.191406 4.335938 5.214844 4.125000Q5.238281 3.984375 5.191406 3.703125Q5.144531 3.421875 4.933594 3.164063Q4.886719 3.093750 4.792969 3.011719Q4.699219 2.929688 4.558594 2.859375Q4.441406 2.789063 4.265625 2.730469Q4.089844 2.671875 3.878906 2.671875L3.550781 2.671875Q3.339844 2.671875 3.164063 2.730469Q2.988281 2.789063 2.871094 2.859375Q2.730469 2.929688 2.636719 3.011719Q2.542969 3.093750 2.496094 3.164063Q2.285156 3.421875 2.238281 3.703125Q2.191406 3.984375 2.214844 4.125000Q2.238281 4.335938 2.261719 4.558594Q2.285156 4.781250 2.261719 4.828125Q2.261719 4.828125 2.261719 4.839844Q2.261719 4.851563 2.261719 4.851563Q2.214844 4.945313 2.203125 5.050781Q2.191406 5.156250 2.238281 5.367188Q2.308594 5.625000 2.378906 5.765625Q2.449219 5.906250 2.496094 5.976563Q2.519531 6.140625 2.566406 6.292969Q2.613281 6.445313 2.660156 6.562500Q2.707031 6.656250 2.742188 6.761719Q2.777344 6.867188 2.777344 6.984375Q2.777344 7.125000 2.777344 7.148438Q2.777344 7.171875 2.730469 7.171875Q2.542969 7.242188 2.308594 7.312500Q2.074219 7.382813 1.839844 7.476563Q1.605469 7.546875 1.394531 7.628906Q1.183594 7.710938 1.066406 7.757813Q0.878906 7.828125 0.785156 7.968750Q0.691406 8.109375 0.691406 8.250000L0.691406 8.250000M4.230469 8.765625Q4.230469 8.742188 4.277344 8.660156Q4.324219 8.578125 4.441406 8.531250Q4.605469 8.460938 4.851563 8.367188Q5.097656 8.273438 5.402344 8.179688Q5.683594 8.085938 5.976563 7.992188Q6.269531 7.898438 6.480469 7.828125Q6.738281 7.757813 6.785156 7.558594Q6.832031 7.359375 6.832031 7.218750Q6.832031 7.007813 6.773438 6.832031Q6.714844 6.656250 6.644531 6.515625Q6.597656 6.398438 6.550781 6.234375Q6.503906 6.070313 6.480469 5.906250L6.457031 5.789063L6.386719 5.695313Q6.339844 5.671875 6.281250 5.542969Q6.222656 5.414063 6.152344 5.132813Q6.105469 4.921875 6.117188 4.851563Q6.128906 4.781250 6.152344 4.734375L6.152344 4.734375L6.152344 4.710938Q6.152344 4.710938 6.164063 4.687500Q6.175781 4.664063 6.175781 4.664063L6.175781 4.640625L6.175781 4.640625Q6.199219 4.500000 6.175781 4.160156Q6.152344 3.820313 6.105469 3.585938Q6.082031 3.492188 6.128906 3.234375Q6.175781 2.976563 6.363281 2.742188Q6.457031 2.625000 6.562500 2.542969Q6.667969 2.460938 6.808594 2.414063Q6.925781 2.343750 7.078125 2.308594Q7.230469 2.273438 7.417969 2.250000L7.769531 2.250000Q7.980469 2.273438 8.144531 2.320313Q8.308594 2.367188 8.449219 2.437500Q8.566406 2.507813 8.648438 2.589844Q8.730469 2.671875 8.800781 2.742188Q8.988281 2.976563 9.035156 3.234375Q9.082031 3.492188 9.058594 3.585938Q9.011719 3.820313 8.988281 4.160156Q8.964844 4.500000 8.988281 4.617188L8.988281 4.640625L8.988281 4.640625Q9.011719 4.664063 9.011719 4.687500Q9.011719 4.710938 9.035156 4.734375Q9.035156 4.781250 9.046875 4.851563Q9.058594 4.921875 9.011719 5.132813Q8.964844 5.414063 8.894531 5.542969Q8.824219 5.671875 8.800781 5.695313L8.707031 5.789063L8.707031 5.906250Q8.683594 6.070313 8.625000 6.234375Q8.566406 6.398438 8.519531 6.515625Q8.472656 6.656250 8.437500 6.820313Q8.402344 6.984375 8.402344 7.218750Q8.402344 7.382813 8.449219 7.570313Q8.496094 7.757813 8.730469 7.828125Q8.964844 7.898438 9.269531 8.003906Q9.574219 8.109375 9.855469 8.203125Q10.136719 8.296875 10.382813 8.390625Q10.628906 8.484375 10.769531 8.554688Q10.863281 8.601563 10.886719 8.648438Q10.910156 8.695313 10.910156 8.765625L10.910156 9.750000L4.230469 9.750000L4.230469 8.765625L4.230469 8.765625M1.089844 8.250000Q1.089844 8.226563 1.113281 8.191406Q1.136719 8.156250 1.207031 8.132813Q1.347656 8.062500 1.546875 7.992188Q1.746094 7.921875 1.980469 7.828125Q2.214844 7.757813 2.437500 7.687500Q2.660156 7.617188 2.847656 7.546875Q3.105469 7.476563 3.140625 7.289063Q3.175781 7.101563 3.175781 6.984375Q3.175781 6.820313 3.128906 6.667969Q3.082031 6.515625 3.011719 6.375000Q2.988281 6.304688 2.941406 6.175781Q2.894531 6.046875 2.894531 5.929688L2.871094 5.812500L2.800781 5.718750Q2.777344 5.695313 2.730469 5.601563Q2.683594 5.507813 2.636719 5.296875Q2.613281 5.132813 2.613281 5.085938Q2.613281 5.039063 2.613281 5.015625L2.613281 4.992188L2.636719 4.992188Q2.636719 4.968750 2.636719 4.957031Q2.636719 4.945313 2.636719 4.945313L2.636719 4.921875L2.660156 4.921875Q2.683594 4.781250 2.660156 4.488281Q2.636719 4.195313 2.589844 4.054688Q2.589844 3.984375 2.625000 3.796875Q2.660156 3.609375 2.800781 3.421875Q2.847656 3.328125 2.929688 3.269531Q3.011719 3.210938 3.105469 3.164063Q3.222656 3.117188 3.328125 3.093750Q3.433594 3.070313 3.574219 3.046875L3.855469 3.046875Q4.183594 3.070313 4.359375 3.187500Q4.535156 3.304688 4.628906 3.421875Q4.769531 3.609375 4.804688 3.796875Q4.839844 3.984375 4.839844 4.054688Q4.792969 4.218750 4.769531 4.500000Q4.746094 4.781250 4.769531 4.921875L4.769531 4.921875L4.769531 4.921875Q4.792969 4.945313 4.792969 4.968750Q4.792969 4.992188 4.816406 5.015625Q4.816406 5.039063 4.816406 5.085938Q4.816406 5.132813 4.792969 5.296875Q4.746094 5.507813 4.699219 5.601563Q4.652344 5.695313 4.628906 5.718750L4.558594 5.812500L4.535156 5.929688Q4.535156 6.046875 4.488281 6.175781Q4.441406 6.304688 4.394531 6.398438Q4.347656 6.515625 4.324219 6.656250Q4.300781 6.796875 4.300781 6.984375Q4.300781 7.125000 4.335938 7.300781Q4.371094 7.476563 4.628906 7.570313Q4.769531 7.593750 4.957031 7.664063Q5.144531 7.734375 5.332031 7.781250Q5.027344 7.898438 4.746094 8.003906Q4.464844 8.109375 4.300781 8.179688Q4.066406 8.273438 3.949219 8.449219Q3.832031 8.625000 3.832031 8.765625Q3.832031 8.812500 3.832031 8.859375Q3.832031 8.906250 3.832031 8.953125L1.089844 8.953125L1.089844 8.250000L1.089844 8.250000Z"/><path id="angle-left" d="M4.804688 5.718750L4.523438 6L6.773438 8.250000L7.054688 7.968750L5.085938 6L7.054688 4.031250L6.773438 3.750000L5.648438 4.875000L4.804688 5.718750Z"/><path id="angle-down" d="M5.718750 7.195313L6 7.476563L8.250000 5.203125L7.968750 4.921875L6 6.914063L4.031250 4.945313L3.750000 5.226563L4.875000 6.351563L5.718750 7.195313Z"/><path id="trash" d="M9.796875 2.203125L7.804688 2.203125L7.804688 1.804688Q7.804688 1.640625 7.734375 1.488281Q7.664063 1.335938 7.570313 1.242188Q7.453125 1.125000 7.312500 1.066406Q7.171875 1.007813 7.007813 1.007813L4.992188 1.007813Q4.828125 1.007813 4.687500 1.066406Q4.546875 1.125000 4.429688 1.242188Q4.335938 1.335938 4.265625 1.488281Q4.195313 1.640625 4.195313 1.804688L4.195313 2.203125L2.203125 2.203125L2.203125 2.601563L2.625000 2.601563L3.023438 10.195313Q3.023438 10.359375 3.082031 10.511719Q3.140625 10.664063 3.257813 10.757813Q3.351563 10.875000 3.503906 10.933594Q3.656250 10.992188 3.820313 10.992188L8.203125 10.992188Q8.367188 10.992188 8.519531 10.933594Q8.671875 10.875000 8.765625 10.757813Q8.882813 10.664063 8.941406 10.511719Q9 10.359375 9 10.195313L9.398438 2.601563L9.796875 2.601563L9.796875 2.203125L9.796875 2.203125M4.593750 1.804688Q4.593750 1.640625 4.710938 1.523438Q4.828125 1.406250 4.992188 1.406250L7.007813 1.406250Q7.171875 1.406250 7.289063 1.523438Q7.406250 1.640625 7.406250 1.804688L7.406250 2.203125L4.593750 2.203125L4.593750 1.804688L4.593750 1.804688M8.601563 10.171875L8.601563 10.195313L8.601563 10.195313Q8.601563 10.359375 8.484375 10.476563Q8.367188 10.593750 8.203125 10.593750L3.820313 10.593750Q3.656250 10.593750 3.539063 10.476563Q3.421875 10.359375 3.421875 10.195313L3.421875 10.195313L3.421875 10.171875L3.023438 2.601563L9 2.601563L8.601563 10.171875L8.601563 10.171875M5.789063 3.398438L6.210938 3.398438L6.210938 9.796875L5.789063 9.796875L5.789063 3.398438L5.789063 3.398438M5.015625 9.796875L4.593750 3.398438L4.195313 3.421875L4.617188 9.820313L5.015625 9.796875M7.804688 3.421875L7.406250 3.398438L7.007813 9.796875L7.406250 9.820313L7.804688 3.421875Z"/><path id="share" d="M9.796875 0.796875Q9.468750 0.796875 9.175781 0.925781Q8.882813 1.054688 8.671875 1.265625Q8.460938 1.476563 8.332031 1.769531Q8.203125 2.062500 8.203125 2.390625Q8.203125 2.507813 8.214844 2.625000Q8.226563 2.742188 8.273438 2.835938L3.585938 4.804688Q3.492188 4.617188 3.339844 4.476563Q3.187500 4.335938 3.023438 4.218750Q2.835938 4.125000 2.625000 4.066406Q2.414063 4.007813 2.203125 4.007813Q1.875000 4.007813 1.582031 4.125000Q1.289063 4.242188 1.078125 4.476563Q0.843750 4.687500 0.726563 4.980469Q0.609375 5.273438 0.609375 5.601563Q0.609375 5.929688 0.726563 6.222656Q0.843750 6.515625 1.078125 6.726563Q1.289063 6.937500 1.582031 7.066406Q1.875000 7.195313 2.203125 7.195313Q2.367188 7.195313 2.531250 7.160156Q2.695313 7.125000 2.859375 7.054688Q3 6.984375 3.128906 6.890625Q3.257813 6.796875 3.375000 6.679688L6.375000 8.859375Q6.351563 8.929688 6.316406 9.023438Q6.281250 9.117188 6.257813 9.210938Q6.234375 9.304688 6.222656 9.398438Q6.210938 9.492188 6.210938 9.609375Q6.210938 9.937500 6.328125 10.230469Q6.445313 10.523438 6.679688 10.734375Q6.890625 10.945313 7.183594 11.074219Q7.476563 11.203125 7.804688 11.203125Q8.132813 11.203125 8.425781 11.074219Q8.718750 10.945313 8.929688 10.734375Q9.140625 10.523438 9.269531 10.230469Q9.398438 9.937500 9.398438 9.609375Q9.398438 9.257813 9.269531 8.976563Q9.140625 8.695313 8.929688 8.460938Q8.718750 8.250000 8.425781 8.121094Q8.132813 7.992188 7.804688 7.992188Q7.617188 7.992188 7.453125 8.027344Q7.289063 8.062500 7.148438 8.132813Q6.984375 8.203125 6.855469 8.308594Q6.726563 8.414063 6.609375 8.531250L3.609375 6.375000Q3.656250 6.281250 3.691406 6.187500Q3.726563 6.093750 3.750000 6Q3.773438 5.906250 3.785156 5.800781Q3.796875 5.695313 3.796875 5.601563Q3.796875 5.484375 3.785156 5.378906Q3.773438 5.273438 3.750000 5.179688L8.414063 3.210938Q8.531250 3.398438 8.671875 3.539063Q8.812500 3.679688 9 3.773438Q9.164063 3.890625 9.375000 3.949219Q9.585938 4.007813 9.796875 4.007813Q10.125000 4.007813 10.417969 3.878906Q10.710938 3.750000 10.921875 3.539063Q11.156250 3.304688 11.273438 3.023438Q11.390625 2.742188 11.390625 2.390625Q11.390625 2.062500 11.273438 1.769531Q11.156250 1.476563 10.921875 1.265625Q10.710938 1.054688 10.417969 0.925781Q10.125000 0.796875 9.796875 0.796875L9.796875 0.796875M7.804688 8.390625Q8.039063 8.390625 8.261719 8.484375Q8.484375 8.578125 8.648438 8.742188Q8.812500 8.906250 8.906250 9.128906Q9 9.351563 9 9.609375Q9 9.843750 8.906250 10.066406Q8.812500 10.289063 8.648438 10.453125Q8.484375 10.617188 8.261719 10.710938Q8.039063 10.804688 7.804688 10.804688Q7.546875 10.804688 7.335938 10.710938Q7.125000 10.617188 6.960938 10.453125Q6.796875 10.289063 6.703125 10.066406Q6.609375 9.843750 6.609375 9.609375Q6.609375 9.351563 6.703125 9.128906Q6.796875 8.906250 6.960938 8.742188Q7.125000 8.578125 7.335938 8.484375Q7.546875 8.390625 7.804688 8.390625L7.804688 8.390625M2.203125 6.796875Q1.945313 6.796875 1.734375 6.703125Q1.523438 6.609375 1.359375 6.445313Q1.195313 6.281250 1.101563 6.070313Q1.007813 5.859375 1.007813 5.601563Q1.007813 5.343750 1.101563 5.132813Q1.195313 4.921875 1.359375 4.757813Q1.523438 4.593750 1.734375 4.500000Q1.945313 4.406250 2.203125 4.406250Q2.460938 4.406250 2.671875 4.500000Q2.882813 4.593750 3.046875 4.757813Q3.210938 4.921875 3.304688 5.132813Q3.398438 5.343750 3.398438 5.601563Q3.398438 5.859375 3.304688 6.070313Q3.210938 6.281250 3.046875 6.445313Q2.882813 6.609375 2.671875 6.703125Q2.460938 6.796875 2.203125 6.796875L2.203125 6.796875M9.796875 3.609375Q9.539063 3.609375 9.328125 3.515625Q9.117188 3.421875 8.953125 3.257813Q8.789063 3.093750 8.695313 2.871094Q8.601563 2.648438 8.601563 2.390625Q8.601563 2.156250 8.695313 1.933594Q8.789063 1.710938 8.953125 1.546875Q9.117188 1.382813 9.328125 1.289063Q9.539063 1.195313 9.796875 1.195313Q10.054688 1.195313 10.265625 1.289063Q10.476563 1.382813 10.640625 1.546875Q10.804688 1.710938 10.898438 1.933594Q10.992188 2.156250 10.992188 2.390625Q10.992188 2.648438 10.898438 2.871094Q10.804688 3.093750 10.640625 3.257813Q10.476563 3.421875 10.265625 3.515625Q10.054688 3.609375 9.796875 3.609375L9.796875 3.609375Z"/><path id="print" d="M2.812500 4.593750Q2.625000 4.593750 2.507813 4.710938Q2.390625 4.828125 2.390625 4.992188Q2.390625 5.156250 2.507813 5.273438Q2.625000 5.390625 2.812500 5.390625Q2.976563 5.390625 3.093750 5.273438Q3.210938 5.156250 3.210938 4.992188Q3.210938 4.828125 3.093750 4.710938Q2.976563 4.593750 2.812500 4.593750L2.812500 4.593750M4.007813 4.593750Q3.843750 4.593750 3.726563 4.710938Q3.609375 4.828125 3.609375 4.992188Q3.609375 5.156250 3.726563 5.273438Q3.843750 5.390625 4.007813 5.390625Q4.171875 5.390625 4.289063 5.273438Q4.406250 5.156250 4.406250 4.992188Q4.406250 4.828125 4.289063 4.710938Q4.171875 4.593750 4.007813 4.593750L4.007813 4.593750M10.992188 3L8.789063 3L8.789063 1.007813L3.210938 1.007813L3.210938 3L1.007813 3Q0.914063 3 0.855469 3.058594Q0.796875 3.117188 0.796875 3.210938L0.796875 9.187500Q0.796875 9.281250 0.855469 9.339844Q0.914063 9.398438 1.007813 9.398438L3.210938 9.398438L3.210938 10.992188L8.789063 10.992188L8.789063 9.398438L10.992188 9.398438Q11.085938 9.398438 11.144531 9.339844Q11.203125 9.281250 11.203125 9.187500L11.203125 3.210938Q11.203125 3.117188 11.144531 3.058594Q11.085938 3 10.992188 3L10.992188 3M3.609375 1.406250L8.390625 1.406250L8.390625 3L3.609375 3L3.609375 1.406250L3.609375 1.406250M8.390625 10.593750L3.609375 10.593750L3.609375 7.007813L8.390625 7.007813L8.390625 10.593750L8.390625 10.593750M10.804688 9L8.789063 9L8.789063 6.609375L3.210938 6.609375L3.210938 9L1.195313 9L1.195313 3.398438L10.804688 3.398438L10.804688 9L10.804688 9Z"/><path id="notebook" d="M6 1.195313L2.812500 1.195313Q2.437500 1.195313 2.144531 1.312500Q1.851563 1.429688 1.640625 1.640625Q1.429688 1.851563 1.312500 2.144531Q1.195313 2.437500 1.195313 2.812500L1.195313 9.445313Q1.195313 9.562500 1.242188 9.796875Q1.289063 10.031250 1.453125 10.242188Q1.617188 10.476563 1.945313 10.640625Q2.273438 10.804688 2.835938 10.804688L10.804688 10.804688L10.804688 1.195313L6 1.195313L6 1.195313M5.601563 1.593750L5.601563 5.437500L4.617188 4.523438L3.539063 5.460938L3.539063 1.593750L5.601563 1.593750L5.601563 1.593750M2.812500 1.593750L3.140625 1.593750L3.140625 6.304688L4.617188 5.062500L6 6.328125L6 1.593750L10.406250 1.593750L10.406250 8.203125L2.812500 8.203125Q2.601563 8.203125 2.437500 8.226563Q2.273438 8.250000 2.109375 8.296875Q1.968750 8.367188 1.839844 8.437500Q1.710938 8.507813 1.593750 8.625000L1.593750 2.812500Q1.593750 2.531250 1.687500 2.308594Q1.781250 2.085938 1.921875 1.921875Q2.085938 1.781250 2.308594 1.687500Q2.531250 1.593750 2.812500 1.593750L2.812500 1.593750M2.835938 10.406250Q2.484375 10.406250 2.261719 10.335938Q2.039063 10.265625 1.898438 10.148438Q1.757813 10.031250 1.687500 9.878906Q1.617188 9.726563 1.617188 9.585938Q1.617188 9.351563 1.699219 9.164063Q1.781250 8.976563 1.921875 8.859375Q2.085938 8.742188 2.308594 8.671875Q2.531250 8.601563 2.812500 8.601563L10.406250 8.601563L10.406250 10.406250L2.835938 10.406250L2.835938 10.406250Z"/><path id="help1" d="M6 1.007813Q4.968750 1.007813 4.054688 1.394531Q3.140625 1.781250 2.460938 2.460938Q1.781250 3.140625 1.394531 4.054688Q1.007813 4.968750 1.007813 6Q1.007813 7.031250 1.394531 7.945313Q1.781250 8.859375 2.460938 9.539063Q3.140625 10.218750 4.054688 10.605469Q4.968750 10.992188 6 10.992188Q7.031250 10.992188 7.945313 10.605469Q8.859375 10.218750 9.539063 9.539063Q10.218750 8.859375 10.605469 7.945313Q10.992188 7.031250 10.992188 6Q10.992188 4.968750 10.605469 4.054688Q10.218750 3.140625 9.539063 2.460938Q8.859375 1.781250 7.945313 1.394531Q7.031250 1.007813 6 1.007813L6 1.007813M6 10.593750Q5.039063 10.593750 4.207031 10.230469Q3.375000 9.867188 2.742188 9.257813Q2.132813 8.625000 1.769531 7.792969Q1.406250 6.960938 1.406250 6Q1.406250 5.039063 1.769531 4.207031Q2.132813 3.375000 2.742188 2.742188Q3.375000 2.132813 4.207031 1.769531Q5.039063 1.406250 6 1.406250Q6.960938 1.406250 7.792969 1.769531Q8.625000 2.132813 9.257813 2.742188Q9.867188 3.375000 10.230469 4.207031Q10.593750 5.039063 10.593750 6Q10.593750 6.960938 10.230469 7.792969Q9.867188 8.625000 9.257813 9.257813Q8.625000 9.867188 7.792969 10.230469Q6.960938 10.593750 6 10.593750L6 10.593750M5.976563 3.375000Q5.601563 3.375000 5.308594 3.492188Q5.015625 3.609375 4.804688 3.820313Q4.617188 4.031250 4.511719 4.324219Q4.406250 4.617188 4.382813 4.992188L4.828125 4.992188Q4.828125 4.734375 4.898438 4.500000Q4.968750 4.265625 5.109375 4.101563Q5.250000 3.937500 5.460938 3.843750Q5.671875 3.750000 5.953125 3.750000Q6.164063 3.750000 6.351563 3.820313Q6.539063 3.890625 6.656250 4.007813Q6.796875 4.148438 6.878906 4.312500Q6.960938 4.476563 6.960938 4.687500Q6.960938 4.828125 6.925781 4.957031Q6.890625 5.085938 6.843750 5.179688Q6.773438 5.296875 6.691406 5.402344Q6.609375 5.507813 6.515625 5.601563Q6.304688 5.789063 6.175781 5.929688Q6.046875 6.070313 5.953125 6.234375Q5.882813 6.375000 5.847656 6.562500Q5.812500 6.750000 5.789063 7.007813L6.257813 7.007813Q6.257813 6.773438 6.269531 6.644531Q6.281250 6.515625 6.328125 6.398438Q6.375000 6.304688 6.480469 6.187500Q6.585938 6.070313 6.796875 5.859375Q6.937500 5.742188 7.042969 5.613281Q7.148438 5.484375 7.242188 5.343750Q7.312500 5.203125 7.359375 5.039063Q7.406250 4.875000 7.406250 4.664063Q7.406250 4.359375 7.289063 4.125000Q7.171875 3.890625 6.984375 3.726563Q6.796875 3.562500 6.539063 3.468750Q6.281250 3.375000 5.976563 3.375000L5.976563 3.375000M6 7.804688Q5.835938 7.804688 5.718750 7.921875Q5.601563 8.039063 5.601563 8.203125Q5.601563 8.367188 5.718750 8.484375Q5.835938 8.601563 6 8.601563Q6.164063 8.601563 6.281250 8.484375Q6.398438 8.367188 6.398438 8.203125Q6.398438 8.039063 6.281250 7.921875Q6.164063 7.804688 6 7.804688L6 7.804688Z"/><path id="folder" d="M10.007813 2.906250L4.804688 2.906250L4.804688 2.695313Q4.804688 2.531250 4.734375 2.390625Q4.664063 2.250000 4.570313 2.132813Q4.453125 2.015625 4.312500 1.957031Q4.171875 1.898438 4.007813 1.898438L1.992188 1.898438Q1.828125 1.898438 1.687500 1.957031Q1.546875 2.015625 1.429688 2.132813Q1.335938 2.250000 1.265625 2.390625Q1.195313 2.531250 1.195313 2.695313L1.195313 9.304688Q1.195313 9.468750 1.265625 9.609375Q1.335938 9.750000 1.429688 9.867188Q1.546875 9.984375 1.687500 10.042969Q1.828125 10.101563 1.992188 10.101563L10.007813 10.101563Q10.171875 10.101563 10.312500 10.042969Q10.453125 9.984375 10.570313 9.867188Q10.664063 9.750000 10.734375 9.609375Q10.804688 9.468750 10.804688 9.304688L10.804688 3.703125Q10.804688 3.539063 10.734375 3.386719Q10.664063 3.234375 10.570313 3.140625Q10.453125 3.023438 10.312500 2.964844Q10.171875 2.906250 10.007813 2.906250L10.007813 2.906250M1.593750 2.695313Q1.593750 2.531250 1.710938 2.414063Q1.828125 2.296875 1.992188 2.296875L4.007813 2.296875Q4.171875 2.296875 4.289063 2.414063Q4.406250 2.531250 4.406250 2.695313L4.406250 3.304688L10.007813 3.304688Q10.171875 3.304688 10.289063 3.421875Q10.406250 3.539063 10.406250 3.703125L10.406250 4.101563L1.593750 4.101563L1.593750 2.695313L1.593750 2.695313M10.007813 9.703125L1.992188 9.703125Q1.828125 9.703125 1.710938 9.585938Q1.593750 9.468750 1.593750 9.304688L1.593750 4.500000L10.406250 4.500000L10.406250 9.304688Q10.406250 9.468750 10.289063 9.585938Q10.171875 9.703125 10.007813 9.703125L10.007813 9.703125Z"/><path id="file" d="M9.492188 4.593750L6.093750 1.195313L2.507813 1.195313L2.507813 10.804688L9.492188 10.804688L9.492188 4.593750L9.492188 4.593750L9.492188 4.593750M6.093750 1.757813L8.742188 4.406250L6.093750 4.406250L6.093750 1.757813L6.093750 1.757813M2.906250 10.406250L2.906250 1.593750L5.695313 1.593750L5.695313 4.804688L9.093750 4.804688L9.093750 10.406250L2.906250 10.406250L2.906250 10.406250Z"/><path id="config" d="M6.609375 1.406250L6.609375 2.367188L6.890625 2.460938Q7.031250 2.484375 7.148438 2.531250Q7.265625 2.578125 7.406250 2.625000Q7.523438 2.671875 7.640625 2.730469Q7.757813 2.789063 7.851563 2.859375L8.132813 3.023438L8.835938 2.320313L9.679688 3.164063L8.976563 3.890625L9.117188 4.148438Q9.187500 4.265625 9.246094 4.371094Q9.304688 4.476563 9.351563 4.593750Q9.398438 4.734375 9.433594 4.851563Q9.468750 4.968750 9.492188 5.085938L9.562500 5.390625L10.593750 5.390625L10.593750 6.609375L9.539063 6.609375L9.468750 6.890625Q9.421875 7.007813 9.386719 7.125000Q9.351563 7.242188 9.304688 7.359375Q9.257813 7.476563 9.199219 7.582031Q9.140625 7.687500 9.070313 7.804688L8.906250 8.062500L9.679688 8.835938L8.835938 9.679688L8.062500 8.906250L7.781250 9.046875Q7.687500 9.117188 7.582031 9.164063Q7.476563 9.210938 7.359375 9.257813Q7.242188 9.304688 7.125000 9.339844Q7.007813 9.375000 6.890625 9.421875L6.609375 9.492188L6.609375 10.593750L5.390625 10.593750L5.390625 9.492188L5.109375 9.421875Q4.992188 9.375000 4.875000 9.339844Q4.757813 9.304688 4.640625 9.257813Q4.523438 9.210938 4.417969 9.164063Q4.312500 9.117188 4.218750 9.046875L3.937500 8.906250L3.164063 9.679688L2.320313 8.835938L3.093750 8.062500L2.929688 7.804688Q2.859375 7.687500 2.800781 7.582031Q2.742188 7.476563 2.695313 7.359375Q2.648438 7.242188 2.613281 7.125000Q2.578125 7.007813 2.531250 6.890625L2.460938 6.609375L1.406250 6.609375L1.406250 5.390625L2.437500 5.390625L2.507813 5.085938Q2.531250 4.968750 2.566406 4.851563Q2.601563 4.734375 2.648438 4.593750Q2.695313 4.476563 2.753906 4.371094Q2.812500 4.265625 2.882813 4.148438L3.023438 3.890625L2.320313 3.164063L3.164063 2.320313L3.867188 3.023438L4.148438 2.859375Q4.242188 2.789063 4.359375 2.730469Q4.476563 2.671875 4.593750 2.625000Q4.734375 2.578125 4.851563 2.531250Q4.968750 2.484375 5.109375 2.460938L5.390625 2.367188L5.390625 1.406250L6.609375 1.406250L6.609375 1.406250M6 7.804688Q6.375000 7.804688 6.703125 7.664063Q7.031250 7.523438 7.265625 7.265625Q7.523438 7.031250 7.664063 6.703125Q7.804688 6.375000 7.804688 6Q7.804688 5.625000 7.664063 5.296875Q7.523438 4.968750 7.265625 4.734375Q7.031250 4.476563 6.703125 4.335938Q6.375000 4.195313 6 4.195313Q5.625000 4.195313 5.296875 4.335938Q4.968750 4.476563 4.734375 4.734375Q4.476563 4.968750 4.335938 5.296875Q4.195313 5.625000 4.195313 6Q4.195313 6.375000 4.335938 6.703125Q4.476563 7.031250 4.734375 7.265625Q4.968750 7.523438 5.296875 7.664063Q5.625000 7.804688 6 7.804688L6 7.804688M7.007813 1.007813L4.992188 1.007813L4.992188 2.062500Q4.851563 2.109375 4.710938 2.156250Q4.570313 2.203125 4.453125 2.250000Q4.312500 2.320313 4.183594 2.378906Q4.054688 2.437500 3.937500 2.507813L3.164063 1.757813L1.757813 3.164063L2.531250 3.937500Q2.460938 4.078125 2.402344 4.195313Q2.343750 4.312500 2.296875 4.453125Q2.226563 4.593750 2.191406 4.722656Q2.156250 4.851563 2.109375 4.992188L1.007813 4.992188L1.007813 7.007813L2.156250 7.007813Q2.179688 7.125000 2.226563 7.253906Q2.273438 7.382813 2.343750 7.523438Q2.390625 7.640625 2.449219 7.769531Q2.507813 7.898438 2.578125 7.992188L1.757813 8.835938L3.164063 10.242188L4.007813 9.398438Q4.125000 9.468750 4.242188 9.527344Q4.359375 9.585938 4.500000 9.632813Q4.617188 9.679688 4.746094 9.726563Q4.875000 9.773438 4.992188 9.796875L4.992188 10.992188L7.007813 10.992188L7.007813 9.796875Q7.125000 9.773438 7.253906 9.726563Q7.382813 9.679688 7.500000 9.632813Q7.640625 9.585938 7.757813 9.527344Q7.875000 9.468750 7.992188 9.398438L8.835938 10.242188L10.242188 8.835938L9.421875 7.992188Q9.492188 7.898438 9.550781 7.769531Q9.609375 7.640625 9.656250 7.523438Q9.726563 7.382813 9.773438 7.253906Q9.820313 7.125000 9.843750 7.007813L10.992188 7.007813L10.992188 4.992188L9.890625 4.992188Q9.843750 4.851563 9.808594 4.722656Q9.773438 4.593750 9.703125 4.453125Q9.656250 4.312500 9.597656 4.195313Q9.539063 4.078125 9.468750 3.937500L10.242188 3.164063L8.835938 1.757813L8.062500 2.507813Q7.945313 2.437500 7.816406 2.378906Q7.687500 2.320313 7.546875 2.250000Q7.429688 2.203125 7.289063 2.156250Q7.148438 2.109375 7.007813 2.062500L7.007813 1.007813L7.007813 1.007813L7.007813 1.007813M6 7.406250Q5.718750 7.406250 5.460938 7.289063Q5.203125 7.171875 5.015625 6.984375Q4.828125 6.796875 4.710938 6.539063Q4.593750 6.281250 4.593750 6Q4.593750 5.718750 4.710938 5.460938Q4.828125 5.203125 5.015625 5.015625Q5.203125 4.828125 5.460938 4.710938Q5.718750 4.593750 6 4.593750Q6.281250 4.593750 6.539063 4.710938Q6.796875 4.828125 6.984375 5.015625Q7.171875 5.203125 7.289063 5.460938Q7.406250 5.718750 7.406250 6Q7.406250 6.281250 7.289063 6.539063Q7.171875 6.796875 6.984375 6.984375Q6.796875 7.171875 6.539063 7.289063Q6.281250 7.406250 6 7.406250L6 7.406250L6 7.406250Z"/></defs></svg>